<svg xmlns="http://www.w3.org/2000/svg" xmlns:xlink="http://www.w3.org/1999/xlink"
     width="24px" height="24px">
    <style>
    path {
        fill: #313131;
    }

    @media (prefers-color-scheme: dark) {
        path {
            fill: #747474;
        }
    }
    </style>
    <path fill-rule="evenodd"
          d="M13.453,24.000 L13.453,17.906 L24.000,17.906 L24.000,24.000 L13.453,24.000 ZM19.687,8.953 L24.000,8.953 L24.000,15.047 L19.687,15.047 L19.687,8.953 ZM13.453,-0.000 L24.000,-0.000 L24.000,6.094 L13.453,6.094 L13.453,-0.000 ZM-0.000,-0.000 L10.547,-0.000 L10.547,6.094 L-0.000,6.094 L-0.000,-0.000 ZM4.313,15.047 L-0.000,15.047 L-0.000,8.953 L4.313,8.953 L4.313,15.047 ZM6.750,8.953 L17.297,8.953 L17.297,15.047 L6.750,15.047 L6.750,8.953 ZM10.547,24.000 L-0.000,24.000 L-0.000,17.906 L10.547,17.906 L10.547,24.000 Z"/>
</svg>
